# xmcd
#
# Track frame offsets:
#	150
#	22746
#	40278
#	62239
#	77206
#	92352
#	112423
#	125069
#	141869
#	159261
#	176863
#	195186
#	214385
#	232913
#	246866
#	274174
#
# Disc length: 3670 seconds
#
# Revision: 1
# Processed by: cddbd v1.5.2PL0 Copyright (c) Steve Scherf et al.
# Submitted via: audiograbber 1.83.01
#
DISCID=e00e5410
DTITLE=Various Artist - CB60314
DYEAR=1900
DGENRE=
TTITLE0=Montgmery Gentry - Hell Yeah
TTITLE1=Terri Clark - Pain To Kill
TTITLE2=Blake Shelton - Playboys Of The Southwestern World
TTITLE3=Trick Pony - I'm Not Thinking Straight Anymore
TTITLE4=Diamond Rio - Wrinkles
TTITLE5=Deana Carter - Wildflower
TTITLE6=Jill King - Hand Me Down Heartache
TTITLE7=Brad Paisley - Mud On The Tires
TTITLE8=Allison Paige - WHERE My Heart Lets Go
TTITLE9=REBECCA LYNN HOWARD - WHAT A SHAME
TTITLE10=CRAIG MORGAN - EVERY FRIDAY AFTERNOON
TTITLE11=RAYN TAYLOR - RUN RUN RUN
TTITLE12=ROSANNE CASH - RULES OF TRAVEL
TTITLE13=ENNIS SISTERS - IT'S NOT ABOUT YOU
TTITLE14=SCOTTY EMERICK and TOBY KEITH - I CAN'T TAKE YOU ANYWHERE
TTITLE15=DATA - DATA
EXTD=
EXTT0=
EXTT1=
EXTT2=
EXTT3=
EXTT4=
EXTT5=
EXTT6=
EXTT7=
EXTT8=
EXTT9=
EXTT10=
EXTT11=
EXTT12=
EXTT13=
EXTT14=
EXTT15=
PLAYORDER=
